<svg width="595" height="96" viewBox="0 0 595 96" fill="none" xmlns="http://www.w3.org/2000/svg">
<path d="M126.676 42.6392L131.922 47.9835C126.907 53.7237 120.705 56.5938 113.316 56.5938C105.992 56.5938 99.8889 54.2515 95.0064 49.567C90.1899 44.8165 87.7816 38.8454 87.7816 31.6536C87.7816 24.3959 90.2559 18.3918 95.2043 13.6412C100.153 8.82474 106.388 6.41649 113.909 6.41649C121.299 6.41649 127.534 9.18763 132.615 14.7299L127.468 20.3711C125.159 18.1278 122.982 16.5773 120.936 15.7196C118.891 14.8619 116.483 14.433 113.712 14.433C108.763 14.433 104.606 16.0165 101.241 19.1835C97.9425 22.3505 96.293 26.3753 96.293 31.2577C96.293 36.0742 97.9425 40.1649 101.241 43.5299C104.54 46.8948 108.466 48.5773 113.019 48.5773C115.79 48.5773 118.165 48.1155 120.145 47.1918C122.19 46.268 124.367 44.7505 126.676 42.6392ZM164.316 13.8392C159.499 13.8392 155.441 15.5546 152.142 18.9856C148.843 22.4165 147.194 26.5732 147.194 31.4557C147.194 36.3381 148.843 40.4948 152.142 43.9258C155.441 47.2907 159.499 48.9732 164.316 48.9732C169.132 48.9732 173.19 47.2907 176.489 43.9258C179.788 40.4948 181.437 36.3381 181.437 31.4557C181.437 26.5732 179.788 22.4165 176.489 18.9856C173.19 15.5546 169.132 13.8392 164.316 13.8392ZM164.316 56.4948C157.058 56.4948 150.988 54.1196 146.105 49.3691C141.223 44.5526 138.782 38.5814 138.782 31.4557C138.782 24.3299 141.223 18.3918 146.105 13.6412C150.988 8.82474 157.058 6.41649 164.316 6.41649C171.573 6.41649 177.643 8.82474 182.526 13.6412C187.408 18.3918 189.85 24.3299 189.85 31.4557C189.85 38.5814 187.375 44.5196 182.427 49.2701C177.479 54.0866 171.441 56.4948 164.316 56.4948ZM233.718 32.4454H241.833V48.9732C237.281 54.0536 230.749 56.5938 222.238 56.5938C215.046 56.5938 209.042 54.2186 204.225 49.468C199.409 44.7175 197 38.7794 197 31.6536C197 24.5278 199.442 18.5567 204.324 13.7402C209.273 8.85773 215.244 6.41649 222.238 6.41649C229.231 6.41649 235.038 8.42886 239.656 12.4536L235.301 18.6887C231.936 15.8515 227.813 14.433 222.93 14.433C217.982 14.433 213.825 16.0495 210.46 19.2825C207.161 22.4495 205.512 26.5732 205.512 31.6536C205.512 36.734 207.095 40.8577 210.262 44.0247C213.495 47.1258 217.487 48.6763 222.238 48.6763C226.856 48.6763 230.683 47.6866 233.718 45.7072V32.4454ZM288.989 7.60412H297.105V56H288.296L260.882 20.668V56H252.667V7.60412H260.882L288.989 43.7278V7.60412ZM317.434 45.0144L312.584 56H303.875L325.252 7.60412H333.962L355.24 56H346.531L341.681 45.0144H317.434ZM338.415 37.3938L329.607 17.501L320.799 37.3938H338.415ZM380.289 15.0268V56H372.075V15.0268H357.427V7.60412H394.937V15.0268H380.289ZM403.886 7.60412H412.101V56H403.886V7.60412ZM450.191 15.0268H422.875V7.60412H461.572V13.9381L433.366 48.2804V48.4783H461.968V56H421.985V49.666L450.191 15.2247V15.0268ZM506.275 7.60412V15.2247H480.444V28.0907H503.603V35.3155H480.444V48.2804H507.067V56H472.23V7.60412H506.275Z" fill="white"/>
<path d="M259.926 91.2474C257.452 91.2474 255.225 90.4777 253.245 88.9381L254.812 86.4227C256.572 87.7698 258.304 88.4433 260.008 88.4433C260.723 88.4433 261.287 88.2784 261.699 87.9485C262.139 87.5911 262.359 87.1512 262.359 86.6289C262.359 85.8591 261.342 85.1718 259.307 84.567C259.252 84.5395 259.183 84.512 259.101 84.4845C259.046 84.457 259.005 84.4433 258.977 84.4433C255.788 83.5911 254.194 82.1478 254.194 80.1134C254.194 78.6838 254.73 77.543 255.802 76.6907C256.902 75.8385 258.345 75.4124 260.132 75.4124C261.891 75.4124 263.568 75.9347 265.163 76.9794L263.967 79.3711C262.73 78.5464 261.369 78.134 259.885 78.134C258.153 78.134 257.287 78.6838 257.287 79.7835C257.287 80.2509 257.452 80.5945 257.781 80.8144C258.139 81.0069 258.716 81.1993 259.513 81.3918C260.723 81.7216 261.74 82.0515 262.565 82.3814C263.115 82.6289 263.596 82.89 264.008 83.1649C265.053 83.8797 265.575 84.9656 265.575 86.4227C265.575 87.8522 265.039 89.0206 263.967 89.9278C262.922 90.8076 261.575 91.2474 259.926 91.2474ZM273.216 78.2577V86.0515C273.216 86.7938 273.408 87.3849 273.793 87.8247C274.205 88.2371 274.755 88.4433 275.442 88.4433C276.075 88.4433 276.734 88.0997 277.422 87.4124L278.741 89.7216C277.587 90.7388 276.336 91.2474 274.989 91.2474C273.587 91.2474 272.405 90.7663 271.442 89.8041C270.48 88.8144 269.999 87.5361 269.999 85.9691V78.2577H268.061V75.6598H269.999V70.8351H273.216V75.6598H277.257V78.2577H273.216ZM292.049 75.6598H295.306V91H292.049V88.1959C291.526 89.1306 290.798 89.8729 289.863 90.4227C288.956 90.9725 287.98 91.2474 286.935 91.2474C285.176 91.2474 283.774 90.7113 282.729 89.6392C281.684 88.567 281.162 87.0412 281.162 85.0619V75.6598H284.379V84.0722C284.379 86.9038 285.547 88.3196 287.884 88.3196C289.066 88.3196 290.056 87.9347 290.853 87.1649C291.65 86.3952 292.049 85.323 292.049 83.9485V75.6598ZM298.97 83.2474C298.97 80.9381 299.699 79.055 301.156 77.5979C302.613 76.1409 304.4 75.4124 306.517 75.4124C308.551 75.4124 310.187 76.2784 311.424 78.0103V69.5979H314.682V91H311.424V88.6907C310.269 90.3952 308.537 91.2474 306.228 91.2474C304.221 91.2474 302.503 90.5052 301.073 89.0206C299.671 87.5086 298.97 85.5842 298.97 83.2474ZM306.929 88.3608C308.221 88.3608 309.307 87.8935 310.187 86.9588C311.066 86.0241 311.506 84.8282 311.506 83.3711C311.506 81.9416 311.053 80.732 310.145 79.7423C309.266 78.7526 308.18 78.2577 306.888 78.2577C305.596 78.2577 304.482 78.7526 303.548 79.7423C302.64 80.7045 302.187 81.9141 302.187 83.3711C302.187 84.8282 302.654 86.0241 303.589 86.9588C304.523 87.8935 305.637 88.3608 306.929 88.3608ZM322.551 91H319.335V75.6598H322.551V91ZM318.923 71.1237C318.923 70.5739 319.115 70.1065 319.5 69.7216C319.912 69.3093 320.407 69.1031 320.984 69.1031C321.534 69.1031 322.002 69.3093 322.386 69.7216C322.799 70.1065 323.005 70.5739 323.005 71.1237C323.005 71.701 322.799 72.1959 322.386 72.6082C322.002 72.9931 321.534 73.1856 320.984 73.1856C320.407 73.1856 319.926 72.9794 319.541 72.567C319.129 72.1821 318.923 71.701 318.923 71.1237ZM334.316 88.3608C335.718 88.3608 336.873 87.8935 337.78 86.9588C338.715 86.0241 339.182 84.8144 339.182 83.3299C339.182 81.8454 338.715 80.6357 337.78 79.701C336.873 78.7663 335.718 78.299 334.316 78.299C332.914 78.299 331.759 78.7663 330.852 79.701C329.945 80.6357 329.491 81.8454 329.491 83.3299C329.491 84.8144 329.945 86.0103 330.852 86.9175C331.759 87.8797 332.914 88.3608 334.316 88.3608ZM334.316 91.2474C332.007 91.2474 330.082 90.4914 328.543 88.9794C327.003 87.4399 326.234 85.5567 326.234 83.3299C326.234 81.1031 327.003 79.2337 328.543 77.7216C330.082 76.1821 332.007 75.4124 334.316 75.4124C336.625 75.4124 338.55 76.1821 340.089 77.7216C341.629 79.2337 342.399 81.1031 342.399 83.3299C342.399 85.4742 341.629 87.3436 340.089 88.9381C338.55 90.4777 336.625 91.2474 334.316 91.2474Z" fill="white"/>
<rect x="138" y="3" width="54.5263" height="56" rx="14" fill="#00E6E6"/>
<circle cx="165.263" cy="31" r="16.9474" fill="black"/>
</svg>
